<?xml version="1.0" encoding="UTF-8" standalone="no"?>
<svg viewBox="0 0 32 32" version="1.1" id="stasige-icon" xmlns="http://www.w3.org/2000/svg" xmlns:svg="http://www.w3.org/2000/svg">
<path id="stasige-icon-path"
  style="font-size:42.3333px;stroke-width:0.494029;fill:white"
d="m 28.549557,1 c -0.188014,0.2529183 -3.535048,5.964987 -3.667459,6.1185575 -0.12093,0.1582145 -0.229813,0.2723985 -0.326926,0.3427775 -0.08563,0.075016 -0.166365,0.1215965 -0.241417,0.1399785 -0.05916,0.012635 -0.117072,0.00761 -0.174476,-0.0156 C 23.668553,7.395359 23.208986,7.130427 22.761175,6.790957 22.329255,6.445732 21.896247,6.0877565 21.461671,5.7170895 21.027095,5.346424 20.591589,4.9936478 20.155258,4.6588221 19.734821,4.3182375 19.312082,4.0619891 18.887281,3.8902077 17.716205,3.4166462 16.548268,3.1573353 15.383503,3.1127397 14.223148,3.0577469 13.137326,3.1915337 12.126322,3.5137016 11.131211,3.8301091 10.245061,4.3182687 9.467285,4.9784103 8.700993,5.6431955 8.119185,6.443625 7.722091,7.37954 7.413239,8.1074735 7.323857,8.8570655 7.453898,9.628464 c 0.134454,0.760998 0.408342,1.541779 0.821853,2.342523 0.417923,0.790346 0.930971,1.594965 1.53876,2.413356 0.612202,0.807992 1.243567,1.617857 1.894623,2.429378 0.66695,0.805765 1.308673,1.607331 1.925285,2.404924 0.616615,0.797593 1.138359,1.580985 1.565106,2.350533 0.426748,0.769549 0.713895,1.519545 0.861585,2.249346 0.152102,0.719403 0.08717,1.411786 -0.195206,2.077325 -0.167663,0.395165 -0.428536,0.740483 -0.782552,1.035922 -0.354019,0.295438 -0.782403,0.512176 -1.284821,0.650139 -0.486525,0.132206 -1.036859,0.177608 -1.651479,0.136183 -0.614619,-0.04143 -1.266216,-0.201661 -1.955085,-0.480226 C 9.020892,26.764307 8.09021,26.19918 7.400345,25.542531 6.7219615,24.890525 6.2308105,24.16205 5.9267975,23.35685 c -0.292531,-0.800557 -0.416184,-1.66661 -0.370546,-2.598448 0.04564,-0.931839 0.215019,-1.917421 0.507882,-2.956403 L 3.9803505,16.959181 1,27.126982 l 1.9641545,1.72738 c 0.316866,-0.493211 0.554104,-1.543317 0.693587,-1.681845 0.150944,-0.133893 0.410648,-0.960494 0.491039,-0.927986 0.539613,0.218209 0.08569,0.308522 0.62535,0.685133 0.551141,0.381253 1.090073,0.77568 1.616497,1.183488 0.5423195,0.402052 1.0659355,0.784547 1.5711515,1.14723 0.516698,0.367326 1.015957,0.648246 1.498164,0.843242 1.274406,0.515345 2.52882,0.809156 3.76247,0.881609 1.238066,0.06206 2.383864,-0.0715 3.438135,-0.40054 1.065754,-0.324392 1.997861,-0.824672 2.79594,-1.50097 0.802494,-0.686697 1.413279,-1.523684 1.832434,-2.511593 0.335325,-0.790327 0.443365,-1.599656 0.323904,-2.427691 -0.115049,-0.838435 -0.376505,-1.681054 -0.783848,-2.528038 -0.407343,-0.846984 -0.921584,-1.69474 -1.543511,-2.543215 -0.621927,-0.848474 -1.270269,-1.683198 -1.944288,-2.504004 -0.67402,-0.820807 -1.335189,-1.624325 -1.983589,-2.410405 -0.6484,-0.786081 -1.202419,-1.540219 -1.662709,-2.262415 -0.455877,-0.732594 -0.78113,-1.424388 -0.975598,-2.075639 -0.194468,-0.651252 -0.17511,-1.2525415 0.05873,-1.8036915 0.150013,-0.353568 0.389769,-0.6650055 0.719067,-0.93389 0.329301,-0.268885 0.717955,-0.4709775 1.165623,-0.606712 0.447671,-0.135736 0.936366,-0.193877 1.466207,-0.174552 0.529839,0.01933 1.070152,0.140164 1.621247,0.363015 0.998858,0.4039205 1.793853,0.9083105 2.384799,1.512776 0.606839,0.5987085 1.041751,1.2863375 1.304253,2.0625665 0.2625,0.776231 0.372069,1.642856 0.329087,2.600134 -0.03857,0.94688 -0.823381,2.125555 -1.103865,3.230458 l 3.828978,5.883292 1.49471,-3.979254 c 1.796564,0.459036 3.761809,-0.623475 4.616714,-2.740956 0.888907,-2.202071 0.242461,-5.17362 -1.580221,-5.771563 -0.105028,-0.03363 -0.212398,-0.0612 -0.321745,-0.08264 L 30.62729,3.6313313 Z m -1.123732,10.439746 a 1.6662641,2.0460587 22.190842 0 1 0.320018,0.0721 1.6662641,2.0460587 22.190842 0 1 0.856402,2.474913 1.6662641,2.0460587 22.190842 0 1 -2.285468,1.358461 1.6662641,2.0460587 22.190842 0 1 -0.855969,-2.474491 1.6662641,2.0460587 22.190842 0 1 1.965017,-1.43098 z" />
</svg>
