<?xml version="1.0" encoding="UTF-8" standalone="no"?>
<!-- Created with Inkscape (http://www.inkscape.org/) -->

<svg
   width="64mm"
   height="64mm"
   viewBox="0 0 64 64"
   version="1.1"
   id="svg21"
   sodipodi:docname="stamdic-ink.svg"
   inkscape:version="1.2.2 (b0a8486541, 2022-12-01)"
   xmlns:inkscape="http://www.inkscape.org/namespaces/inkscape"
   xmlns:sodipodi="http://sodipodi.sourceforge.net/DTD/sodipodi-0.dtd"
   xmlns="http://www.w3.org/2000/svg"
   xmlns:svg="http://www.w3.org/2000/svg">
  <sodipodi:namedview
     id="namedview23"
     pagecolor="#ffffff"
     bordercolor="#000000"
     borderopacity="0.25"
     inkscape:showpageshadow="2"
     inkscape:pageopacity="0.0"
     inkscape:pagecheckerboard="0"
     inkscape:deskcolor="#d1d1d1"
     inkscape:document-units="mm"
     showgrid="false"
     inkscape:zoom="1.7934203"
     inkscape:cx="98.972896"
     inkscape:cy="39.589158"
     inkscape:window-width="1920"
     inkscape:window-height="996"
     inkscape:window-x="0"
     inkscape:window-y="52"
     inkscape:window-maximized="1"
     inkscape:current-layer="layer1" />
  <defs
     id="defs18" />
  <g
     inkscape:label="Layer 1"
     inkscape:groupmode="layer"
     id="layer1">
    <g
       id="g691">
      <g
         id="text191"
         style="font-size:317.5px;stroke-width:0.264583" />
      <g
         aria-label="S"
         transform="scale(0.99029547,1.0097996)"
         id="text195"
         style="font-size:59.5513px;stroke-width:0.223317">
        <path
           d="m 46.869251,39.427242 q 0,5.657374 -4.109039,8.813592 -4.10904,3.156219 -11.076542,3.156219 -3.573078,0 -6.610194,-0.535961 -3.037117,-0.535962 -5.061861,-1.488783 v -5.121412 q 2.143847,0.952821 5.300066,1.726988 3.21577,0.774167 6.610194,0.774167 4.764104,0 7.146156,-1.84609 2.441603,-1.846091 2.441603,-5.00231 0,-2.084295 -0.893269,-3.513526 -0.89327,-1.429231 -3.096668,-2.620257 -2.143847,-1.250578 -6.014681,-2.620258 -5.419168,-1.965193 -8.218079,-4.823655 -2.73936,-2.858462 -2.73936,-7.80122 0,-3.394424 1.726987,-5.776476 1.726988,-2.441604 4.764104,-3.7517323 3.096668,-1.3101286 7.086605,-1.3101286 3.513527,0 6.431541,0.6550643 2.918013,0.6550643 5.300065,1.7269876 l -1.667436,4.58545 q -2.203398,-0.952821 -4.823655,-1.607885 -2.560706,-0.655064 -5.359617,-0.655064 -3.989938,0 -6.014682,1.726988 -2.024744,1.667436 -2.024744,4.466347 0,2.143847 0.89327,3.573078 0.893269,1.429231 2.918013,2.560706 2.024744,1.131475 5.47872,2.441603 3.751732,1.36968 6.312438,2.977565 2.620257,1.548334 3.930385,3.751732 1.36968,2.203398 1.36968,5.538271 z"
           style="fill:#ff0000"
           id="path694" />
      </g>
      <g
         aria-label="t"
         transform="scale(0.92593622,1.079988)"
         id="text409"
         style="font-size:69.6991px;font-family:Balker;-inkscape-font-specification:Balker;fill:#0000ff;stroke-width:0.261371">
        <path
           d="m 33.210947,19.62194 0.06807,32.126927 q 0,1.735671 1.73567,1.735671 1.735671,0 1.735671,-1.735671 l 0.06807,-32.058862 13.817301,-0.06807 q 1.735671,0 1.735671,-1.735671 0,-1.769704 -1.735671,-1.769704 L 36.81842,16.0485 36.750354,6.9957849 q 0,-1.7356708 -1.735671,-1.7356708 -1.73567,0 -1.73567,1.7356708 l -0.06807,9.0527151 -13.034548,0.06807 q -1.735671,0 -1.735671,1.769704 0,1.735671 1.735671,1.735671 l 13.034548,0.06807 z"
           id="path697" />
      </g>
      <path
         d="m 32.198967,61.834381 c -0.489695,0 -0.979389,-0.147111 -1.39563,-0.429074 C 12.770326,49.256369 2.3520691,31.100389 2.2051607,11.583629 2.1929183,10.443517 2.9641876,9.438257 4.0660009,9.1440345 L 31.562364,1.837509 c 0.416241,-0.1103335 0.856966,-0.1103335 1.285449,0 l 27.496363,7.3065255 c 1.101813,0.2942225 1.86084,1.2994825 1.86084,2.4395945 C 62.07035,31.08813 51.639851,49.256369 33.60684,61.405307 33.178357,61.68727 32.688662,61.834381 32.198967,61.834381 Z M 4.8208084,11.636989 C 5.5798354,28.236041 16.87427,49.14499 32.067051,59.920889 47.259832,49.14499 58.884057,28.301999 59.643083,11.702946 L 32.067051,3.8174764 Z"
         id="path513"
         style="fill:#2b1100;stroke-width:0.122508"
         sodipodi:nodetypes="sccccccccsccccc" />
    </g>
  </g>
</svg>
